<?xml version="1.0" encoding="UTF-8" standalone="no"?>
<svg
   width="118"
   height="18"
   viewBox="0 0 118 18"
   fill="none"
   version="1.1"
   id="svg2"
   sodipodi:docname="logo.svg"
   inkscape:version="1.3 (0e150ed6c4, 2023-07-21)"
   xmlns:inkscape="http://www.inkscape.org/namespaces/inkscape"
   xmlns:sodipodi="http://sodipodi.sourceforge.net/DTD/sodipodi-0.dtd"
   xmlns="http://www.w3.org/2000/svg"
   xmlns:svg="http://www.w3.org/2000/svg">
  <defs
     id="defs2" />
  <sodipodi:namedview
     id="namedview2"
     pagecolor="#ffffff"
     bordercolor="#000000"
     borderopacity="0.25"
     inkscape:showpageshadow="2"
     inkscape:pageopacity="0.0"
     inkscape:pagecheckerboard="0"
     inkscape:deskcolor="#d1d1d1"
     inkscape:zoom="10.644068"
     inkscape:cx="59"
     inkscape:cy="8.9721338"
     inkscape:window-width="2303"
     inkscape:window-height="1321"
     inkscape:window-x="-9"
     inkscape:window-y="-9"
     inkscape:window-maximized="1"
     inkscape:current-layer="svg2" />
  <path
     d="m 7.7395,17.345 c 1.13467,0 2.1965,-0.1917 3.1855,-0.575 0.989,-0.3833 1.7863,-0.9583 2.392,-1.725 0.6133,-0.7667 0.92,-1.7212 0.92,-2.8635 0,-0.8203 -0.1533,-1.4988 -0.46,-2.0355 C 13.478,9.60167 13.0908,9.16467 12.6155,8.835 12.1478,8.50533 11.661,8.2485 11.155,8.0645 10.6567,7.8805 10.2043,7.73483 9.798,7.6275 L 6.831,6.7995 C 6.463,6.69983 6.095,6.57717 5.727,6.4315 5.359,6.27817 5.05233,6.075 4.807,5.822 4.56167,5.56133 4.439,5.22783 4.439,4.8215 4.439,4.39217 4.58083,4.0165 4.8645,3.6945 5.15583,3.3725 5.53533,3.12333 6.003,2.947 6.47833,2.77067 6.992,2.69017 7.544,2.7055 c 0.851,0.023 1.61767,0.27217 2.3,0.7475 0.6823,0.47533 1.1117,1.15 1.288,2.024 L 14.1105,4.9595 C 13.7425,3.42617 12.9873,2.24167 11.845,1.406 10.7027,0.562666 9.2805,0.133333 7.5785,0.117999 6.45917,0.110332 5.4395,0.290499 4.5195,0.658499 3.60717,1.01883 2.87883,1.55933 2.3345,2.28 1.79783,3.00067 1.5295,3.89383 1.5295,4.9595 c 0,0.72833 0.11883,1.34167 0.3565,1.84 0.24533,0.49067 0.55583,0.89317 0.9315,1.2075 0.38333,0.31433 0.78583,0.5635 1.2075,0.7475 0.42933,0.184 0.828,0.32967 1.196,0.437 l 4.278,1.265 c 1.2267,0.368 1.84,1.0043 1.84,1.909 0,0.506 -0.1648,0.9392 -0.4945,1.2995 -0.322,0.3527 -0.7437,0.621 -1.265,0.805 -0.52133,0.184 -1.07717,0.276 -1.6675,0.276 -0.99667,0 -1.87833,-0.2683 -2.645,-0.805 C 4.508,13.4043 4.00583,12.6453 3.7605,11.664 l -2.875,0.437 c 0.17633,1.081 0.575,2.0163 1.196,2.806 0.62867,0.782 1.426,1.3838 2.392,1.8055 0.97367,0.4217 2.06233,0.6325 3.266,0.6325 z M 24.0057,17 v -2.323 c -0.7743,0.115 -1.4643,0.1457 -2.07,0.092 -0.6057,-0.0537 -1.0465,-0.3105 -1.3225,-0.7705 -0.1457,-0.2377 -0.2262,-0.5443 -0.2415,-0.92 -0.0077,-0.3833 -0.0115,-0.8203 -0.0115,-1.311 v -5.014 h 3.6455 V 4.58 H 20.3602 V 1.13 h -2.76 v 3.45 h -2.254 v 2.1735 h 2.254 v 5.175 c 0,0.713 0.0077,1.3493 0.023,1.909 0.0153,0.552 0.1648,1.0963 0.4485,1.633 0.322,0.5903 0.7935,1.0235 1.4145,1.2995 0.621,0.2683 1.3225,0.4102 2.1045,0.4255 0.7897,0.023 1.5947,-0.0422 2.415,-0.1955 z m 6.1437,0.345 c 0.989,0 1.8285,-0.161 2.5185,-0.483 0.6977,-0.3297 1.311,-0.8395 1.84,-1.5295 V 17 h 2.4265 V 9.3755 c 0,-0.53667 -0.023,-1.03117 -0.069,-1.4835 C 36.8194,7.432 36.6852,6.9835 36.4629,6.5465 36.0566,5.72617 35.4317,5.13583 34.5884,4.7755 33.7527,4.41517 32.7829,4.235 31.6789,4.235 c -1.4567,0 -2.6182,0.31817 -3.4845,0.9545 -0.8663,0.63633 -1.4528,1.47967 -1.7595,2.53 l 2.53,0.7935 c 0.207,-0.63633 0.5712,-1.08483 1.0925,-1.3455 0.5213,-0.26067 1.0618,-0.391 1.6215,-0.391 0.8433,0 1.4643,0.1725 1.863,0.5175 0.3987,0.33733 0.6248,0.8625 0.6785,1.5755 -1.0887,0.161 -2.1007,0.31817 -3.036,0.4715 -0.9277,0.14567 -1.7173,0.32583 -2.369,0.5405 -0.9813,0.3373 -1.6982,0.8165 -2.1505,1.4375 -0.4523,0.6133 -0.6785,1.3723 -0.6785,2.277 0,0.6823 0.1572,1.3072 0.4715,1.8745 0.322,0.5673 0.7935,1.0235 1.4145,1.3685 0.621,0.3373 1.38,0.506 2.277,0.506 z m 0.552,-2.208 c -0.6517,0 -1.15,-0.1495 -1.495,-0.4485 -0.3373,-0.299 -0.506,-0.6747 -0.506,-1.127 0,-0.4063 0.1303,-0.736 0.391,-0.989 0.2683,-0.253 0.6402,-0.4677 1.1155,-0.644 0.437,-0.1457 0.9622,-0.2722 1.5755,-0.3795 0.6133,-0.115 1.4145,-0.2492 2.4035,-0.4025 -0.0077,0.2913 -0.0268,0.6172 -0.0575,0.9775 -0.0307,0.3527 -0.1035,0.6708 -0.2185,0.9545 -0.092,0.2837 -0.2722,0.5865 -0.5405,0.9085 -0.2607,0.322 -0.6133,0.5942 -1.058,0.8165 -0.4447,0.2223 -0.9813,0.3335 -1.61,0.3335 z M 39.9284,17 h 2.783 v -6.3135 c 0,-0.72067 0.1303,-1.36083 0.391,-1.9205 0.2683,-0.55967 0.6861,-0.99283 1.2535,-1.2995 0.3833,-0.22233 0.8126,-0.35267 1.288,-0.391 0.4753,-0.046 0.9008,-0.01533 1.2765,0.092 V 4.58 C 46.3607,4.49567 45.7857,4.50717 45.1954,4.6145 44.605,4.71417 44.0799,4.92117 43.6199,5.2355 43.3592,5.3965 43.1254,5.592 42.9184,5.822 42.7114,6.04433 42.5312,6.2935 42.3779,6.5695 V 4.58 h -2.4495 z"
     fill="#000000"
     id="path1"
     style="display:none"
     sodipodi:insensitive="true" />
  <text
     xml:space="preserve"
     style="font-size:26.6667px;line-height:0;fill:#000000;fill-opacity:1"
     x="-0.6576432"
     y="16.722929"
     id="text2"><tspan
       style="font-style:normal;font-variant:normal;font-weight:600;font-stretch:normal;font-size:26.6667px;line-height:0;font-family:'Lucida Sans';-inkscape-font-specification:'Lucida Sans Semi-Bold';letter-spacing:0px;word-spacing:0px;baseline-shift:baseline;fill:#000000;fill-opacity:1"
       sodipodi:role="line"
       id="tspan28"
       x="-0.6576432"
       y="16.722929">Print</tspan><tspan
       sodipodi:role="line"
       x="-0.6576432"
       y="16.722929"
       id="tspan3"
       style="font-size:26.6667px;line-height:1.25;fill:#000000;fill-opacity:1" /></text>
  <text
     xml:space="preserve"
     style="font-size:24px;line-height:0;fill:#1f3bb3;fill-opacity:1"
     x="63.000412"
     y="16.871382"
     id="text2-8"><tspan
       style="font-style:normal;font-variant:normal;font-weight:600;font-stretch:normal;font-size:32px;line-height:0;font-family:'Lucida Sans';-inkscape-font-specification:'Lucida Sans Semi-Bold';letter-spacing:0px;word-spacing:0px;baseline-shift:baseline;fill:#1f3bb3;fill-opacity:1"
       sodipodi:role="line"
       id="tspan28-6"
       x="63.000412"
       y="16.871382">3d</tspan><tspan
       sodipodi:role="line"
       x="63.000412"
       y="16.871382"
       id="tspan3-7"
       style="font-size:24px;line-height:1.25;fill:#1f3bb3;fill-opacity:1" /></text>
</svg>
